<svg xmlns="http://www.w3.org/2000/svg" width="900" height="330" viewBox="0 0 900 330">
  <defs>
    <marker id="arrow" markerWidth="9" markerHeight="9" refX="7" refY="4.5" orient="auto">
      <path d="M0,0 L9,4.5 L0,9 z" fill="#637381"/>
    </marker>
    <style>
      .edge{stroke:#34495e;stroke-width:3;stroke-linejoin:round}
      .leader{stroke:#637381;stroke-width:2;fill:none;marker-end:url(#arrow)}
      .axis{stroke:#9aa9b4;stroke-width:2;stroke-dasharray:8 7}
      text{font-family:Arial,sans-serif;font-size:21px;fill:#253746}
      .small{font-size:17px;fill:#586b7a}
    </style>
  </defs>
  <rect width="900" height="330" fill="#fff"/>
  <text x="28" y="36" font-size="21" fill="#586b7a">项目 2｜轴系装配爆炸示意（部件仅作教学示意）</text>
  <path class="axis" d="M95 169 H810"/>
  <g class="edge">
    <rect x="112" y="145" width="95" height="48" rx="8" fill="#9ec4d8"/>
    <path d="M207 145 L225 158 L225 206 L207 193 Z" fill="#7ea8bf"/>
    <path d="M112 145 L130 132 L225 145 L207 158 Z" fill="#c2d9e5"/>
    <rect x="313" y="158" width="230" height="22" rx="10" fill="#d9a85f"/>
    <ellipse cx="313" cy="169" rx="10" ry="11" fill="#efca8d"/>
    <ellipse cx="543" cy="169" rx="10" ry="11" fill="#be8742"/>
    <rect x="605" y="120" width="75" height="98" rx="8" fill="#b8c1c9"/>
    <rect x="621" y="144" width="42" height="50" rx="5" fill="#fff" stroke="#34495e" stroke-width="3"/>
    <rect x="722" y="133" width="78" height="72" rx="6" fill="#87b6a8"/>
    <circle cx="761" cy="169" r="22" fill="#e4efeb"/>
  </g>
  <path class="leader" d="M157 145 L132 90 H77"/>
  <path class="leader" d="M425 158 L425 91 H358"/>
  <path class="leader" d="M643 120 L665 83 H740"/>
  <path class="leader" d="M761 133 L786 91 H856"/>
  <circle cx="61" cy="87" r="17" fill="#fff" stroke="#34495e" stroke-width="2.5"/><text x="55" y="94">1</text>
  <circle cx="342" cy="87" r="17" fill="#fff" stroke="#34495e" stroke-width="2.5"/><text x="336" y="94">2</text>
  <circle cx="756" cy="80" r="17" fill="#fff" stroke="#34495e" stroke-width="2.5"/><text x="750" y="87">3</text>
  <circle cx="870" cy="87" r="17" fill="#fff" stroke="#34495e" stroke-width="2.5"/><text x="864" y="94">4</text>
  <text x="112" y="246">联轴器</text>
  <text x="383" y="218">轴</text>
  <text x="604" y="246">轴承座</text>
  <text x="720" y="246">端盖/支承件</text>
  <text class="small" x="28" y="305">真实零件、数量、配合与装配方向以 CAD 装配体和 BOM 为准。</text>
</svg>
